<?xml version="1.0" standalone="no"?>
<!DOCTYPE svg PUBLIC "-//W3C//DTD SVG 20010904//EN"
 "http://www.w3.org/TR/2001/REC-SVG-20010904/DTD/svg10.dtd">
<svg version="1.0" xmlns="http://www.w3.org/2000/svg"
 width="2001.000000pt" height="2001.000000pt" viewBox="0 0 2001.000000 2001.000000"
 preserveAspectRatio="xMidYMid meet">
<metadata>
Created by potrace 1.14, written by Peter Selinger 2001-2017
</metadata>
<g transform="translate(0.000000,2001.000000) scale(0.100000,-0.100000)"
fill="#000000" stroke="none">
<path d="M6588 13855 c-2 -2 -37 -6 -78 -10 -218 -18 -532 -85 -730 -154 -175
-62 -437 -183 -565 -261 -37 -22 -69 -40 -70 -40 -10 0 -213 -143 -305 -214
-128 -99 -399 -367 -501 -496 -210 -264 -350 -502 -481 -818 -6 -15 -12 -29
-13 -32 0 -3 -11 -31 -23 -63 -19 -51 -77 -234 -87 -277 -2 -8 -12 -53 -23
-100 -11 -47 -23 -101 -26 -120 -3 -19 -8 -44 -10 -56 -2 -12 -7 -45 -11 -74
-4 -29 -8 -61 -10 -72 -16 -83 -20 -404 -20 -1878 l0 -1685 640 0 640 0 1
1645 c0 905 4 1679 8 1720 10 109 18 170 32 265 119 786 553 1531 1190 2041
328 262 721 467 1119 584 61 18 116 33 123 33 26 1 -4 16 -43 21 -23 4 -50 8
-60 10 -11 2 -49 7 -85 11 -36 4 -76 9 -90 12 -30 5 -517 13 -522 8z"/>
<path d="M9819 13855 c-2 -1 -44 -6 -94 -9 -118 -8 -304 -38 -455 -72 -105
-23 -333 -94 -415 -129 -16 -7 -55 -23 -85 -35 -159 -65 -399 -195 -544 -296
-50 -35 -99 -69 -109 -76 -11 -7 -27 -20 -37 -28 -11 -8 -34 -26 -52 -40 -122
-93 -307 -273 -453 -440 -90 -103 -254 -339 -335 -480 -41 -72 -155 -308 -165
-340 -4 -14 -11 -30 -16 -35 -26 -33 -156 -471 -173 -585 -3 -19 -8 -44 -10
-56 -2 -12 -7 -45 -11 -75 -4 -30 -8 -56 -10 -59 -3 -5 -13 -108 -21 -220 -4
-42 -8 -3205 -5 -3345 l1 -30 640 0 640 0 0 45 c1 25 2 790 4 1700 1 910 5
1666 8 1680 4 14 9 50 13 80 9 76 14 110 36 225 32 174 47 229 114 430 254
763 796 1417 1497 1808 247 138 427 212 748 308 l75 22 -40 8 c-50 9 -115 18
-180 25 -27 3 -63 8 -80 10 -34 6 -481 15 -486 9z"/>
<path d="M12998 13855 c-2 -2 -35 -6 -73 -9 -115 -8 -299 -35 -405 -60 -14 -3
-34 -8 -45 -10 -181 -37 -485 -147 -690 -249 -160 -80 -384 -219 -505 -314
-122 -95 -228 -189 -335 -297 -506 -511 -819 -1162 -901 -1876 -16 -134 -18
-488 -19 -2560 l0 -2325 640 0 640 0 1 2294 c1 1261 5 2330 8 2375 11 131 20
192 48 301 11 44 21 87 23 95 2 8 19 58 38 111 186 511 586 917 1101 1118 98
38 264 85 342 96 22 3 44 8 51 10 69 23 441 24 559 1 12 -3 37 -7 55 -10 110
-17 260 -61 387 -112 90 -36 246 -116 273 -140 8 -8 18 -14 22 -14 6 0 98 -60
107 -71 3 -3 23 -18 44 -35 197 -146 389 -377 513 -614 449 -858 182 -1907
-624 -2452 -143 -96 -376 -206 -514 -242 -121 -31 -386 -47 -1219 -71 -80 -2
-182 -4 -227 -5 l-81 0 -50 -92 c-27 -51 -60 -113 -74 -138 -14 -25 -55 -103
-93 -175 -37 -71 -71 -134 -75 -140 -4 -5 -35 -64 -70 -130 -34 -66 -75 -142
-90 -170 -60 -109 -230 -431 -230 -436 0 -5 160 -4 940 5 865 11 1229 23 1300
41 8 2 31 7 50 10 19 3 43 8 52 11 17 5 46 12 83 19 298 59 758 267 1064 480
172 120 418 340 566 505 193 216 398 534 515 800 79 179 164 427 186 540 3 14
11 50 19 80 11 47 27 138 50 290 26 173 26 624 0 781 -2 13 -6 47 -10 74 -3
28 -13 84 -22 125 -8 41 -16 84 -18 95 -7 44 -66 255 -93 335 -69 200 -181
445 -272 590 -22 36 -43 73 -46 83 -4 9 -10 17 -15 17 -5 0 -9 5 -9 11 0 15
-153 231 -195 275 -5 6 -35 41 -65 78 -30 36 -118 128 -196 204 -412 401 -885
666 -1444 807 -74 19 -155 37 -180 40 -25 4 -67 11 -94 16 -27 5 -74 12 -105
15 -31 3 -69 8 -86 10 -36 6 -502 14 -507 9z"/>
</g>
</svg>
