<?xml version="1.0" encoding="iso-8859-1"?>
<!-- Uploaded to: SVG Repo, www.svgrepo.com, Generator: SVG Repo Mixer Tools -->
<svg fill="#000000" height="800px" width="800px" version="1.1" id="Layer_1" xmlns="http://www.w3.org/2000/svg" xmlns:xlink="http://www.w3.org/1999/xlink" 
	 viewBox="0 0 512.003 512.003" xml:space="preserve">
<g>
	<g>
		<path d="M503.469,273.068H69.157c-0.589,0-1.169-0.119-1.707-0.358L9.748,247.553c-3.081-0.444-6.11,0.811-7.987,3.26
			c-1.877,2.449-2.287,5.717-1.067,8.55l25.6,59.733c1.348,3.14,4.429,5.171,7.842,5.171h469.333c4.71,0,8.533-3.823,8.533-8.533
			v-34.133C512.003,276.891,508.18,273.068,503.469,273.068z"/>
	</g>
</g>
<g>
	<g>
		<path d="M442.413,250.702l-14.123-56.499c-0.956-3.806-4.369-6.468-8.286-6.468H100.534c-3.917,0-7.33,2.662-8.277,6.46
			l-14.131,56.508c-0.674,2.688,1.365,5.299,4.139,5.299h152.405c2.355,0,4.267-1.911,4.267-4.267v-42.667
			c0-2.355,1.911-4.267,4.267-4.267h34.133c2.355,0,4.267,1.911,4.267,4.267v42.667c0,2.355,1.911,4.267,4.267,4.267h152.405
			C441.048,256.001,443.088,253.39,442.413,250.702z M130.153,230.214c-0.7,0.179-1.399,0.256-2.082,0.256
			c-3.831,0-7.339-2.586-8.312-6.46c-1.143-4.574,1.596-9.199,6.17-10.334l0.085-0.017c4.565-1.126,9.207,1.63,10.351,6.212
			C137.509,224.437,134.727,229.07,130.153,230.214z M162.204,230.487c-4.71,0-8.576-3.823-8.576-8.533
			c0-4.71,3.78-8.533,8.491-8.533h0.085c4.71,0,8.533,3.823,8.533,8.533C170.738,226.664,166.923,230.487,162.204,230.487z
			 M204.803,221.953c0,4.71-3.823,8.533-8.533,8.533s-8.533-3.823-8.533-8.533c0-4.71,3.823-8.576,8.533-8.576
			s8.533,3.78,8.533,8.491V221.953z M331.693,226.032c-1.562,2.816-4.463,4.403-7.458,4.403c-1.391,0-2.807-0.341-4.113-1.067
			l-0.077-0.043c-4.113-2.287-5.598-7.484-3.311-11.605c2.287-4.105,7.475-5.606,11.605-3.311
			C332.453,216.697,333.98,221.911,331.693,226.032z M358.488,230.401h-0.085c-4.71,0-8.533-3.823-8.533-8.533
			c0-4.71,3.823-8.533,8.533-8.533s8.576,3.823,8.576,8.533C366.979,226.578,363.198,230.401,358.488,230.401z M392.621,230.41
			h-0.085c-4.71,0-8.533-3.823-8.533-8.533c0-4.71,3.823-8.533,8.533-8.533c4.71,0,8.576,3.823,8.576,8.533
			C401.112,226.587,397.332,230.41,392.621,230.41z"/>
	</g>
</g>
</svg>